<svg xmlns="http://www.w3.org/2000/svg" width="37.31" height="37.31" viewBox="0 0 37.31 37.31">
  <path id="Icon_awesome-arrow-alt-circle-right" data-name="Icon awesome-arrow-alt-circle-right" d="M19.218.563A18.655,18.655,0,1,1,.563,19.218,18.652,18.652,0,0,1,19.218.563ZM10.492,22.527h8.726v5.333a.9.9,0,0,0,1.542.639l8.6-8.643a.894.894,0,0,0,0-1.271l-8.6-8.651a.9.9,0,0,0-1.542.639v5.333H10.492a.905.905,0,0,0-.9.9v4.814A.905.905,0,0,0,10.492,22.527Z" transform="translate(-0.563 -0.563)"/>
</svg>
