<svg xmlns="http://www.w3.org/2000/svg" width="65.181" height="64.068" viewBox="0 0 65.181 64.068">
  <path id="Icon_awesome-cube" data-name="Icon awesome-cube" d="M30.445.618,3.96,10.549A6.12,6.12,0,0,0,0,16.279V44.942A6.109,6.109,0,0,0,3.374,50.4L29.859,63.647a6.068,6.068,0,0,0,5.463,0L61.807,50.4a6.1,6.1,0,0,0,3.374-5.463V16.279a6.1,6.1,0,0,0-3.96-5.717L34.736.63A6.006,6.006,0,0,0,30.445.618ZM32.6,8.525l24.448,9.168v.14L32.6,27.765,8.149,17.833v-.14Zm4.075,45.33V34.9l20.373-8.277v17.05Z" transform="translate(0 -0.228)"/>
</svg>
